HIERARCHY
ROOT Hips
{
	OFFSET 0.000000 0.000000 0.000000
	CHANNELS 6 Xposition Yposition Zposition Xrotation Yrotation Zrotation
	JOINT LeftUpLeg_virtual
	{
		OFFSET 0.000000 0.000000 0.000000
		CHANNELS 3 Xrotation Yrotation Zrotation
		JOINT LeftUpLeg
		{
			OFFSET 10.205400 -3.823500 0.155100
			CHANNELS 3 Xrotation Yrotation Zrotation
			JOINT LeftLeg
			{
				OFFSET 0.708757 -12.982077 0.567790
				CHANNELS 3 Xrotation Yrotation Zrotation
				JOINT LeftFoot
				{
					OFFSET -0.708756 -10.717838 -2.184338
					CHANNELS 3 Xrotation Yrotation Zrotation
					JOINT LeftToeBase
					{
						OFFSET 0.108149 -7.191104 7.560241
						CHANNELS 3 Xrotation Yrotation Zrotation
						JOINT LeftToe_End
						{
							OFFSET 0.070230 0.081724 4.490308
							CHANNELS 3 Xrotation Yrotation Zrotation
							End Site
							{
								OFFSET 0 0 0
							}
						}
					}
				}
			}
		}
	}
	JOINT RightUpLeg_virtual
	{
		OFFSET 0.000000 0.000000 0.000000
		CHANNELS 3 Xrotation Yrotation Zrotation
		JOINT RightUpLeg
		{
			OFFSET -10.205400 -3.823500 0.005500
			CHANNELS 3 Xrotation Yrotation Zrotation
			JOINT RightLeg
			{
				OFFSET -0.708756 -12.982134 0.610632
				CHANNELS 3 Xrotation Yrotation Zrotation
				JOINT RightFoot
				{
					OFFSET 0.708754 -10.717769 -1.945823
					CHANNELS 3 Xrotation Yrotation Zrotation
					JOINT RightToeBase
					{
						OFFSET -0.108140 -7.191069 7.372968
						CHANNELS 3 Xrotation Yrotation Zrotation
						JOINT RightToe_End
						{
							OFFSET -0.070227 0.081735 4.479403
							CHANNELS 3 Xrotation Yrotation Zrotation
							End Site
							{
								OFFSET 0 0 0
							}
						}
					}
				}
			}
		}
	}
	JOINT Spine_virtual
	{
		OFFSET 0.000000 0.000000 0.000000
		CHANNELS 3 Xrotation Yrotation Zrotation
		JOINT Spine
		{
			OFFSET 0.000000 6.876099 0.125700
			CHANNELS 3 Xrotation Yrotation Zrotation
			JOINT Spine1
			{
				OFFSET 0.000000 5.730043 0.104720
				CHANNELS 3 Xrotation Yrotation Zrotation
				JOINT Spine1_split
				{
					OFFSET 0.000000 5.730043 0.104720
					CHANNELS 3 Xrotation Yrotation Zrotation
					JOINT Spine2
					{
						OFFSET 0.000000 5.730043 0.104720
						CHANNELS 3 Xrotation Yrotation Zrotation
						JOINT Neck_virtual
						{
							OFFSET 0.000000 0.000000 0.000000
							CHANNELS 3 Xrotation Yrotation Zrotation
							JOINT Neck
							{
								OFFSET 0.000000 10.314075 0.188496
								CHANNELS 3 Xrotation Yrotation Zrotation
								JOINT Head
								{
									OFFSET 0.000000 7.643700 -2.377400
									CHANNELS 3 Xrotation Yrotation Zrotation
									JOINT HeadTop_End
									{
										OFFSET 0.000000 43.788605 -13.619600
										CHANNELS 3 Xrotation Yrotation Zrotation
										End Site
										{
											OFFSET 0 0 0
										}
									}
								}
							}
						}
						JOINT LeftShoulder_virtual
						{
							OFFSET 0.000000 0.000000 0.000000
							CHANNELS 3 Xrotation Yrotation Zrotation
							JOINT LeftShoulder
							{
								OFFSET 2.196100 4.412489 0.087492
								CHANNELS 3 Xrotation Yrotation Zrotation
								JOINT LeftShoulder_split
								{
									OFFSET 2.196100 4.412489 0.087492
									CHANNELS 3 Xrotation Yrotation Zrotation
									JOINT LeftArm
									{
										OFFSET 8.771219 -2.981674 -0.026999
										CHANNELS 3 Xrotation Yrotation Zrotation
										JOINT LeftForeArm
										{
											OFFSET 8.512804 0.000000 -0.000000
											CHANNELS 3 Xrotation Yrotation Zrotation
											JOINT LeftHand
											{
												OFFSET 18.484802 0.000000 -0.000000
												CHANNELS 3 Xrotation Yrotation Zrotation
												End Site
												{
													OFFSET 0 0 0
												}
											}
										}
									}
								}
							}
						}
						JOINT RightShoulder_virtual
						{
							OFFSET 0.000000 0.000000 0.000000
							CHANNELS 3 Xrotation Yrotation Zrotation
							JOINT RightShoulder
							{
								OFFSET -2.196100 4.412496 0.070690
								CHANNELS 3 Xrotation Yrotation Zrotation
								JOINT RightShoulder_split
								{
									OFFSET -2.196100 4.412496 0.070690
									CHANNELS 3 Xrotation Yrotation Zrotation
									JOINT RightArm
									{
										OFFSET -8.771282 -2.981682 -0.094208
										CHANNELS 3 Xrotation Yrotation Zrotation
										JOINT RightForeArm
										{
											OFFSET -8.494598 0.000000 0.000000
											CHANNELS 3 Xrotation Yrotation Zrotation
											JOINT RightHand
											{
												OFFSET -18.483803 0.000000 0.000001
												CHANNELS 3 Xrotation Yrotation Zrotation
												End Site
												{
													OFFSET 0 0 0
												}
											}
										}
									}
								}
							}
						}
					}
				}
			}
		}
	}
}
MOTION
Frames: 4
Frame Time: 0.03333333
2.213764 30.867699 51.595909 0.000000 0.000000 0.000000 3.561510 -6.209744 -3.921596 -58.761456 7.375180 10.995477 42.195150 -5.380873 3.870587 2.403689 -11.784855 -2.897534 4.289556 -1.961963 0.567508 0.000000 0.000000 0.000000 3.561510 -6.209744 -3.921596 -16.295745 3.332906 7.125206 48.334121 4.041481 -2.179910 -35.267774 -1.010544 -0.755903 -1.095102 0.000008 0.000001 0.000000 0.000000 0.000000 3.561510 -6.209744 -3.921596 16.018091 3.323401 2.013165 19.617225 7.612219 3.331498 0.000000 0.000000 0.000000 0.000000 0.000000 0.000000 19.436456 7.747064 3.778476 -47.550653 27.672103 -28.991370 38.119252 -35.320657 37.422746 0.000000 0.000000 0.000000 19.436456 7.747064 3.778476 -3.381581 -14.879798 -10.335926 0.000000 0.000000 0.000000 -13.224306 6.607386 -66.021872 -0.000008 -61.657777 0.000001 0.000000 0.000000 0.000000 19.436456 7.747064 3.778476 -0.354234 18.524216 5.452754 0.000000 0.000000 0.000000 -46.329641 9.134350 35.856096 179.999964 77.992236 -179.999964 0.000000 0.000000 0.000000 
2.133652 31.115417 50.841438 0.000000 0.000000 0.000000 1.747002 -6.251860 -4.443679 -56.769189 6.992978 12.515686 46.086316 -3.620375 4.078878 -5.974556 -6.855688 -3.304462 3.731151 -2.876468 1.489672 0.000000 0.000000 0.000000 1.747002 -6.251860 -4.443679 -15.370518 2.900354 7.540659 46.130005 4.483473 -1.963798 -32.560461 -0.901878 -0.998289 -0.815207 0.000008 0.000003 0.000000 0.000000 0.000000 1.747002 -6.251860 -4.443679 15.695795 3.230599 2.156944 18.892734 7.360077 3.379200 0.000000 0.000000 0.000000 0.000000 0.000000 0.000000 18.719006 7.487796 3.782728 -47.227985 26.281472 -28.461883 39.969895 -34.405138 38.024018 0.000000 0.000000 0.000000 18.719006 7.487796 3.782728 -2.920880 -13.934226 -10.054507 0.000000 0.000000 0.000000 -15.900435 7.130566 -67.405013 -0.000015 -55.377354 -0.000011 0.000000 0.000000 0.000000 18.719006 7.487796 3.782728 -0.415580 16.816247 7.010221 0.000000 0.000000 0.000000 -50.064839 9.752498 34.132689 179.999991 77.984737 179.999991 0.000000 0.000000 0.000000 
2.067803 31.314228 50.086723 0.000000 0.000000 0.000000 -0.075938 -5.739136 -4.686238 -53.716904 5.374842 13.758269 49.599338 2.514018 2.339765 -10.294387 -5.975570 -5.649528 2.830185 -3.535695 2.253612 0.000000 0.000000 0.000000 -0.075938 -5.739136 -4.686238 -14.756709 2.537711 7.982894 45.131687 4.693365 -2.062700 -30.309016 -1.307025 -1.186088 -0.534710 0.000004 0.000001 0.000000 0.000000 0.000000 -0.075938 -5.739136 -4.686238 15.419442 3.070353 2.333407 18.307156 6.842976 3.335157 0.000000 0.000000 0.000000 0.000000 0.000000 0.000000 18.139589 6.974634 3.683823 -47.474514 23.980699 -27.014406 40.047909 -33.747896 36.703828 0.000000 0.000000 0.000000 18.139589 6.974634 3.683823 -2.496468 -13.195369 -9.565495 0.000000 0.000000 0.000000 -18.578991 8.187698 -68.480289 0.000003 -49.237348 -0.000022 0.000000 0.000000 0.000000 18.139589 6.974634 3.683823 -0.357470 14.871776 8.511753 0.000000 0.000000 0.000000 -54.828647 10.545200 32.887781 179.999937 79.129599 -179.999991 0.000000 0.000000 0.000000 
1.995990 31.469749 49.273151 0.000000 0.000000 0.000000 -1.808964 -4.801663 -4.748708 -49.699387 4.574004 15.215317 52.313174 5.316905 1.074161 -9.348569 -4.897498 -10.235879 2.189379 -5.186639 3.787593 0.000000 0.000000 0.000000 -1.808964 -4.801663 -4.748708 -14.155988 2.094699 8.500404 44.411270 4.565212 -2.329590 -28.624534 -1.872763 -1.728030 -0.377662 0.000003 -0.000001 0.000000 0.000000 0.000000 -1.808964 -4.801663 -4.748708 15.198016 2.864161 2.540874 17.724867 6.151642 3.244095 0.000000 0.000000 0.000000 0.000000 0.000000 0.000000 17.563881 6.278937 3.554084 -48.125660 20.993030 -25.171759 38.821566 -33.048246 34.143197 0.000000 0.000000 0.000000 17.563881 6.278937 3.554084 -2.043091 -12.649539 -9.012634 0.000000 0.000000 0.000000 -20.905688 9.779911 -69.261813 -0.000015 -44.059252 0.000002 0.000000 0.000000 0.000000 17.563881 6.278937 3.554084 -0.267039 12.535960 9.806629 0.000000 0.000000 0.000000 -61.139065 11.110016 32.393883 179.999937 79.252092 -179.999991 0.000000 0.000000 0.000000 
